<svg version="1.1" width="123" height="111" viewBox="-1 -1 123 111" xmlns="http://www.w3.org/2000/svg" xmlns:xlink="http://www.w3.org/1999/xlink">
  <!-- Exported by Scratch - http://scratch.mit.edu/ -->
  <g id="ID0.4710463183000684">
    <g id="Bottom_Fin">
      <path id="ID0.18057379499077797" fill="#272525" d="M 82.971 111.811 C 78.362 112.091 72.719 111.867 68.223 110.280 C 67.910 106.893 73.032 107.313 71.117 102.983 C 70.622 101.866 72.020 101.440 72.242 100.606 C 72.253 100.566 72.253 100.523 72.257 100.481 C 71.489 99.419 70.834 98.456 70.307 97.656 C 69.668 97.706 69.245 98.200 68.786 98.637 C 66.677 100.653 67.805 102.533 68.385 104.950 C 64.096 106.687 63.092 110.171 64.369 113.230 C 67.773 114.937 85.095 116.116 84.768 112.820 C 84.761 112.812 84.757 112.806 84.751 112.799 C 84.208 112.495 83.669 112.165 83.137 111.803 C 83.080 111.806 83.037 111.807 82.971 111.811 Z " transform="matrix(1, 0, 0, 1, -15, -20)"/>
      <path id="ID0.8444258347153664" fill="#FFFFCC" d="M 71.117 102.982 C 73.032 107.312 67.910 106.892 68.223 110.279 C 72.719 111.866 78.361 112.091 82.971 111.810 C 83.037 111.806 83.080 111.805 83.139 111.802 C 78.809 108.857 74.888 104.116 72.258 100.480 C 72.254 100.522 72.254 100.565 72.243 100.605 C 72.020 101.439 70.622 101.865 71.117 102.982 Z " transform="matrix(1, 0, 0, 1, -15, -20)"/>
    </g>
    <g id="Top_Fin">
      <path id="Fill_1_" fill="#FFFFCC" d="M 68.487 33.296 C 70.305 40.172 61.044 39.240 63.105 43.298 C 64.555 46.154 72.672 46.953 70.173 52.563 C 69.220 54.701 66.456 55.360 68.245 58.056 C 68.705 58.749 70.012 59.616 71.079 60.487 C 74.618 53.401 80.986 42.018 88.193 35.468 C 82.683 32.419 68.486 25.175 62.141 24.442 C 62.379 28.381 67.401 29.192 68.487 33.296 Z " transform="matrix(1, 0, 0, 1, -15, -20)"/>
      <path id="Outline_1_" fill="#272525" d="M 91.268 33.010 C 86.104 28.780 68.488 22.387 62.863 21.325 C 60.342 20.850 57.898 19.588 57.482 22.637 C 56.566 29.354 60.114 28.480 63.105 32.475 C 65.376 35.508 60.271 38.897 59.571 41.576 C 58.490 45.712 61.978 47.033 64.542 48.474 C 65.559 49.046 66.426 49.639 66.808 50.433 C 66.871 50.564 66.926 50.698 66.960 50.841 C 67.754 54.088 61.947 57.666 69.053 64.709 C 69.384 63.991 69.803 63.098 70.294 62.086 C 70.396 61.876 70.499 61.664 70.607 61.444 C 70.760 61.132 70.914 60.819 71.080 60.487 C 70.013 59.616 68.706 58.749 68.246 58.056 C 66.457 55.360 69.221 54.701 70.174 52.563 C 72.673 46.953 64.556 46.154 63.106 43.298 C 61.045 39.240 70.306 40.172 68.488 33.296 C 67.402 29.192 62.380 28.381 62.142 24.442 C 68.487 25.174 82.684 32.419 88.194 35.468 C 88.659 35.045 89.128 34.642 89.598 34.260 C 90.094 33.857 90.594 33.478 91.096 33.131 C 91.156 33.090 91.209 33.051 91.268 33.010 Z " transform="matrix(1, 0, 0, 1, -15, -20)"/>
    </g>
    <g id="Body">
      <path id="Fill" fill="#FFFFCC" d="M 103.364 86.706 C 105.616 83.766 118.808 77.086 122.640 75.721 C 118.035 63.241 104.451 41.244 91.234 37.350 C 82.144 47.986 68.776 68.822 64.649 82.198 C 69.350 95.888 90.820 117.592 105.132 119.994 C 112.028 110.767 128.746 88.537 131.319 77.851 C 121.362 79.034 112.702 83.111 103.926 87.689 C 103.688 87.562 103.098 87.053 103.364 86.706 Z " transform="matrix(1, 0, 0, 1, -15, -20)"/>
      <g id="Dots">
        <path id="Dot_11_" fill="#FFFFFF" d="M 77.247 79.427 C 78.937 79.427 80.468 80.127 81.577 81.259 C 82.686 82.391 83.372 83.953 83.372 85.678 C 83.372 87.403 82.686 88.965 81.577 90.097 C 80.468 91.229 78.937 91.929 77.247 91.929 C 75.557 91.929 74.026 91.229 72.917 90.097 C 71.808 88.965 71.122 87.403 71.122 85.678 C 71.122 83.953 71.808 82.391 72.917 81.259 C 74.026 80.127 75.557 79.427 77.247 79.427 Z " transform="matrix(1, 0, 0, 1, -15, -20)"/>
        <path id="Dot_10_" fill="#FFFFFF" d="M 88.793 93.160 C 89.790 93.160 90.694 93.573 91.349 94.241 C 92.003 94.909 92.408 95.831 92.408 96.849 C 92.408 97.867 92.003 98.789 91.349 99.457 C 90.694 100.125 89.790 100.538 88.793 100.538 C 87.796 100.538 86.892 100.125 86.237 99.457 C 85.583 98.789 85.178 97.867 85.178 96.849 C 85.178 95.831 85.583 94.909 86.237 94.241 C 86.892 93.573 87.796 93.160 88.793 93.160 Z " transform="matrix(1, 0, 0, 1, -15, -20)"/>
        <path id="Dot_9_" fill="#FFFFFF" d="M 100.439 102.794 C 101.990 102.794 103.396 103.437 104.414 104.476 C 105.432 105.515 106.062 106.950 106.062 108.533 C 106.062 110.116 105.432 111.551 104.414 112.590 C 103.396 113.629 101.990 114.272 100.439 114.272 C 98.888 114.272 97.482 113.629 96.464 112.590 C 95.446 111.551 94.816 110.116 94.816 108.533 C 94.816 106.950 95.446 105.515 96.464 104.476 C 97.482 103.437 98.888 102.794 100.439 102.794 Z " transform="matrix(1, 0, 0, 1, -15, -20)"/>
        <path id="Dot_8_" fill="#FFFFFF" d="M 112.287 94.594 C 113.396 94.594 114.400 95.053 115.127 95.795 C 115.855 96.537 116.305 97.562 116.305 98.693 C 116.305 99.824 115.855 100.849 115.127 101.591 C 114.400 102.333 113.396 102.792 112.287 102.792 C 111.178 102.792 110.174 102.333 109.447 101.591 C 108.719 100.849 108.269 99.824 108.269 98.693 C 108.269 97.562 108.719 96.537 109.447 95.795 C 110.174 95.053 111.178 94.594 112.287 94.594 Z " transform="matrix(1, 0, 0, 1, -15, -20)"/>
        <path id="Dot_7_" fill="#FFFFFF" d="M 114.596 81.477 C 115.621 81.477 116.550 81.902 117.222 82.588 C 117.895 83.275 118.311 84.223 118.311 85.269 C 118.311 86.315 117.895 87.263 117.222 87.950 C 116.550 88.636 115.621 89.061 114.596 89.061 C 113.571 89.061 112.642 88.636 111.970 87.950 C 111.297 87.263 110.881 86.315 110.881 85.269 C 110.881 84.223 111.297 83.275 111.970 82.588 C 112.642 81.902 113.571 81.477 114.596 81.477 Z " transform="matrix(1, 0, 0, 1, -15, -20)"/>
        <path id="Dot_6_" fill="#FFFFFF" d="M 99.536 81.682 C 100.893 81.682 102.123 82.245 103.014 83.154 C 103.905 84.062 104.456 85.318 104.456 86.703 C 104.456 88.088 103.905 89.344 103.014 90.252 C 102.123 91.161 100.893 91.724 99.536 91.724 C 98.179 91.724 96.949 91.161 96.058 90.252 C 95.167 89.344 94.616 88.088 94.616 86.703 C 94.616 85.318 95.167 84.062 96.058 83.154 C 96.949 82.245 98.179 81.682 99.536 81.682 Z " transform="matrix(1, 0, 0, 1, -15, -20)"/>
        <path id="Dot_5_" fill="#FFFFFF" d="M 106.865 60.570 C 108.361 60.570 109.716 61.190 110.697 62.192 C 111.679 63.194 112.286 64.577 112.286 66.104 C 112.286 67.631 111.679 69.014 110.697 70.016 C 109.716 71.018 108.361 71.638 106.865 71.638 C 105.369 71.638 104.014 71.018 103.033 70.016 C 102.051 69.014 101.444 67.631 101.444 66.104 C 101.444 64.577 102.051 63.194 103.033 62.192 C 104.014 61.190 105.369 60.570 106.865 60.570 Z " transform="matrix(1, 0, 0, 1, -15, -20)"/>
        <path id="Dot_4_" fill="#FFFFFF" d="M 86.082 57.905 C 87.384 57.905 88.564 58.445 89.418 59.317 C 90.272 60.189 90.801 61.393 90.801 62.722 C 90.801 64.051 90.272 65.255 89.418 66.127 C 88.564 66.999 87.384 67.539 86.082 67.539 C 84.780 67.539 83.600 66.999 82.746 66.127 C 81.892 65.255 81.363 64.051 81.363 62.722 C 81.363 61.393 81.892 60.189 82.746 59.317 C 83.600 58.445 84.780 57.905 86.082 57.905 Z " transform="matrix(1, 0, 0, 1, -15, -20)"/>
        <path id="Dot_3_" fill="#FFFFFF" d="M 96.625 42.328 C 98.121 42.328 99.476 42.948 100.458 43.950 C 101.439 44.951 102.047 46.334 102.047 47.861 C 102.047 49.388 101.439 50.771 100.458 51.772 C 99.476 52.774 98.121 53.394 96.625 53.394 C 95.129 53.394 93.774 52.774 92.792 51.772 C 91.811 50.771 91.203 49.388 91.203 47.861 C 91.203 46.334 91.811 44.951 92.792 43.950 C 93.774 42.948 95.129 42.328 96.625 42.328 Z " transform="matrix(1, 0, 0, 1, -15, -20)"/>
        <path id="Dot_2_" fill="#FFFFFF" d="M 80.561 100.129 C 79.337 100.129 78.227 100.576 77.336 101.297 C 79.681 103.835 82.206 106.284 84.812 108.535 C 85.418 107.665 85.783 106.607 85.783 105.458 C 85.782 102.515 83.444 100.129 80.561 100.129 Z " transform="matrix(1, 0, 0, 1, -15, -20)"/>
        <path id="Dot_1_" fill="#FFFFFF" d="M 72.613 76.918 C 75.219 76.918 77.332 74.761 77.332 72.101 C 77.332 69.440 75.219 67.284 72.613 67.284 C 72.060 67.284 71.538 67.399 71.045 67.577 C 69.984 69.577 68.999 71.548 68.109 73.462 C 68.687 75.455 70.473 76.918 72.613 76.918 Z " transform="matrix(1, 0, 0, 1, -15, -20)"/>
        <path id="Dot" fill="#FFFFFF" d="M 83.766 52.321 C 85.762 52.321 87.380 50.670 87.380 48.632 C 87.380 47.073 86.430 45.747 85.091 45.207 C 83.751 47.047 82.388 48.994 81.029 51.016 C 81.691 51.808 82.665 52.321 83.766 52.321 Z " transform="matrix(1, 0, 0, 1, -15, -20)"/>
        <path id="Dot_12_" fill="#FFFFFF" d="M 119.916 93.980 C 119.916 95.288 120.425 96.469 121.240 97.351 C 123.018 94.620 124.704 91.901 126.180 89.310 C 125.721 89.162 125.242 89.060 124.736 89.060 C 122.074 89.061 119.916 91.263 119.916 93.980 Z " transform="matrix(1, 0, 0, 1, -15, -20)"/>
      </g>
      <path id="Outline" fill="#272525" d="M 137.500 71.949 C 133.421 72.132 128.652 73.482 125.540 74.610 C 122.186 64.566 116.738 52.042 108.745 44.975 C 103.450 40.295 96.805 35.059 90.269 32.431 C 76.299 46.222 67.822 64.682 59.428 82.198 C 63.897 90.611 69.100 98.536 75.362 105.231 C 77.179 107.174 79.087 109.014 81.091 110.732 C 88.114 116.752 96.332 121.275 106.094 123.517 C 111.660 117.777 118.992 108.403 125.177 98.855 C 126.604 96.652 127.969 94.440 129.238 92.261 C 132.352 86.910 134.883 81.761 136.296 77.441 C 136.807 75.879 137.500 71.949 137.500 71.949 Z M 126.181 89.311 C 124.704 91.902 123.019 94.621 121.241 97.352 C 115.536 106.113 108.883 114.977 105.133 119.995 C 99.041 118.973 91.654 114.447 84.813 108.536 C 82.208 106.285 79.682 103.836 77.337 101.298 C 71.377 94.845 66.587 87.842 64.650 82.199 C 65.471 79.537 66.663 76.577 68.110 73.463 C 68.999 71.549 69.985 69.578 71.046 67.578 C 73.987 62.032 77.490 56.284 81.031 51.016 C 82.389 48.995 83.753 47.047 85.093 45.207 C 87.245 42.250 89.335 39.575 91.237 37.350 C 104.454 41.244 118.038 63.240 122.643 75.721 C 118.811 77.086 105.619 83.766 103.367 86.706 C 103.100 87.053 103.690 87.562 103.929 87.689 C 112.704 83.111 121.365 79.034 131.322 77.851 C 130.581 80.915 128.678 84.928 126.181 89.311 Z " transform="matrix(1, 0, 0, 1, -15, -20)"/>
    </g>
    <g id="Little_Fin">
      <path id="ID0.10621234308928251" fill="#272525" d="M 97.227 109.352 C 86.584 110.787 80.453 122.543 80.632 129.668 C 83.861 129.448 87.819 128.038 90.432 126.063 C 93.654 123.623 98.029 116.936 97.227 109.352 Z M 85.611 125.489 C 85.933 120.730 90.029 115.239 94.849 113.517 C 93.645 118.271 90.270 123.191 85.611 125.489 Z " transform="matrix(1, 0, 0, 1, -15, -20)"/>
      <path id="ID0.04993331339210272" fill="#FFFFCC" d="M 85.611 125.489 C 90.269 123.191 93.644 118.271 94.849 113.517 C 90.029 115.239 85.934 120.730 85.611 125.489 Z " transform="matrix(1, 0, 0, 1, -15, -20)"/>
    </g>
    <g id="Tail_Fin">
      <path id="Fill_2_" fill="#FFFFCC" d="M 22.400 49.895 C 20.775 51.741 20.632 54.450 21.035 56.782 C 21.958 62.128 33.091 66.442 27.220 72.360 C 18.572 81.077 32.214 80.166 33.163 88.102 C 33.827 93.647 25.487 94.659 29.308 99.088 C 32.209 102.453 40.160 103.447 37.822 109.910 C 37.303 111.344 33.573 112.837 35.332 118.601 C 37.590 118.293 40.084 115.324 41.838 113.842 C 49.934 107.018 56.458 92.575 59.603 82.527 C 53.684 68.805 36.682 52.427 22.400 49.895 Z " transform="matrix(1, 0, 0, 1, -15, -20)"/>
      <path id="Outline_2_" fill="#272525" d="M 61.725 82.704 C 61.406 79.508 60.066 76.529 58.673 73.684 C 53.070 62.262 35.177 44.538 21.597 46.777 C 18.946 47.213 16.680 50.586 16.216 53.089 C 14.990 59.687 19.241 62.091 22.561 66.617 C 25.903 71.173 18.172 72.834 19.348 78.423 C 20.594 84.346 26.136 85.442 27.220 89.082 C 27.971 91.605 24.604 93.836 24.168 96.378 C 22.955 103.438 28.614 103.529 32.039 107.527 C 34.757 110.702 31.449 113.366 31.637 119.006 C 31.765 122.879 34.797 126.448 37.589 124.108 C 46.684 116.483 62.035 95.754 61.886 83.116 C 61.884 82.993 61.820 82.849 61.725 82.704 Z M 41.838 113.843 C 40.084 115.324 37.590 118.294 35.332 118.602 C 33.573 112.837 37.303 111.344 37.822 109.911 C 40.160 103.448 32.209 102.454 29.308 99.089 C 25.487 94.659 33.827 93.648 33.163 88.103 C 32.214 80.167 18.572 81.079 27.220 72.361 C 33.091 66.443 21.958 62.129 21.035 56.783 C 20.632 54.451 20.775 51.742 22.400 49.896 C 36.682 52.428 53.684 68.806 59.603 82.528 C 56.458 92.576 49.934 107.019 41.838 113.843 Z " transform="matrix(1, 0, 0, 1, -15, -20)"/>
    </g>
    <g id="L_Eye">
      <path id="White" fill="#FFFFFF" d="M 98.984 69.314 L 87.017 68.677 C 87.963 75.480 97.814 75.025 98.984 69.314 Z " transform="matrix(1, 0, 0, 1, -15, -20)"/>
      <path id="Pupil_1_" fill="#272525" d="M 97.126 68.154 C 97.874 68.154 98.551 68.464 99.042 68.965 C 99.532 69.466 99.836 70.158 99.836 70.921 C 99.836 71.684 99.532 72.376 99.042 72.877 C 98.551 73.378 97.874 73.688 97.126 73.688 C 96.378 73.688 95.701 73.378 95.210 72.877 C 94.720 72.376 94.416 71.684 94.416 70.921 C 94.416 70.158 94.720 69.466 95.210 68.965 C 95.701 68.464 96.378 68.154 97.126 68.154 Z " transform="matrix(1, 0, 0, 1, -15, -20)"/>
      <path id="Eyelid" fill="#FF5600" d="M 87.820 65.858 C 91.566 65.860 95.263 66.581 98.984 66.949 C 97.282 62.662 89.705 61.022 87.820 65.858 Z " transform="matrix(1, 0, 0, 1, -15, -20)"/>
      <path id="Outline_3_" fill="#272525" d="M 84.777 65.672 C 81.364 65.217 79.329 65.289 79.146 67.405 C 78.953 69.650 82.460 68.046 83.804 68.676 C 83.839 79.611 97.900 79.906 101.878 71.133 C 105.287 63.611 91.303 55.325 84.777 65.672 Z M 87.018 68.677 L 98.985 69.314 C 97.814 75.025 87.963 75.480 87.018 68.677 Z M 87.820 65.858 C 89.705 61.022 97.282 62.662 98.984 66.949 C 95.264 66.581 91.566 65.860 87.820 65.858 Z " transform="matrix(1, 0, 0, 1, -15, -20)"/>
    </g>
    <g id="R_Eye">
      <path id="White_1_" fill="#FFFFFF" d="M 124.230 66.193 L 115.373 68.222 C 116.771 72.632 124.156 71.743 124.230 66.193 Z " transform="matrix(1, 0, 0, 1, -15, -20)"/>
      <path id="Pupil" fill="#272525" d="M 123.582 65.489 C 124.233 65.489 124.823 65.759 125.250 66.195 C 125.677 66.631 125.941 67.233 125.941 67.897 C 125.941 68.561 125.677 69.163 125.250 69.599 C 124.823 70.035 124.233 70.305 123.582 70.305 C 122.931 70.305 122.341 70.035 121.914 69.599 C 121.487 69.163 121.223 68.561 121.223 67.897 C 121.223 67.233 121.487 66.631 121.914 66.195 C 122.341 65.759 122.931 65.489 123.582 65.489 Z " transform="matrix(1, 0, 0, 1, -15, -20)"/>
      <path id="Eyelid_1_" fill="#FF5600" d="M 115.154 66.334 C 117.892 65.567 120.581 64.522 123.372 64.044 C 121.521 60.425 116.027 62.696 115.154 66.334 Z " transform="matrix(1, 0, 0, 1, -15, -20)"/>
      <path id="Outline_4_" fill="#272525" d="M 129.979 64.178 C 129.649 62.512 128.125 62.714 125.625 63.510 C 119.807 56.081 110.152 64.472 113.391 70.042 C 117.161 76.538 127.610 74.516 126.625 65.785 C 127.566 65.110 130.330 65.946 129.979 64.178 Z M 123.372 64.044 C 120.581 64.522 117.893 65.567 115.154 66.334 C 116.027 62.696 121.521 60.425 123.372 64.044 Z M 115.373 68.222 L 124.230 66.193 C 124.156 71.743 116.771 72.632 115.373 68.222 Z " transform="matrix(1, 0, 0, 1, -15, -20)"/>
    </g>
  </g>
</svg>