<svg version="1.1" width="133" height="118" viewBox="-1 -1 133 118" xmlns="http://www.w3.org/2000/svg" xmlns:xlink="http://www.w3.org/1999/xlink">
  <!-- Exported by Scratch - http://scratch.mit.edu/ -->
  <g id="ID0.00513820443302393" transform="matrix(1, 0, 0, 1, -1, 0)">
    <g id="Top_Fin">
      <path id="Fill" fill="#4B79EF" d="M 96.253 29.401 C 88.370 27.359 82.052 18.145 80.045 10.789 C 77.311 15.813 72.982 19.223 66.238 19.566 C 66.682 23.470 69.768 29.527 62.033 38.399 C 63.803 39.678 67.177 41.872 67.563 45.891 C 69.922 42.186 77.021 34.269 96.253 29.401 Z "/>
      <path id="Outline_1_" fill="#272525" d="M 67.563 45.891 C 67.177 41.872 63.803 39.678 62.033 38.399 C 69.768 29.527 66.682 23.470 66.238 19.566 C 72.982 19.223 77.311 15.813 80.045 10.789 C 82.052 18.145 88.370 27.359 96.253 29.401 C 97.449 29.098 98.695 28.808 99.987 28.531 C 93.343 23.877 90.479 22.317 86.170 14.446 C 84.331 11.087 81.654 3.584 80.867 0 C 80.055 7.385 70.885 17.460 62.947 16.274 C 65.425 22.556 62.096 35.194 56.730 39.040 C 56.730 39.040 64.762 42.128 67.032 46.787 C 67.174 46.526 67.349 46.226 67.563 45.891 Z "/>
    </g>
    <g id="Tail_Fin">
      <path id="Fill_2_" fill="#39B54A" d="M 54.290 70.570 C 32.625 76.750 31.750 49.125 31.750 49.125 C 26.500 56.750 15.250 54.289 15.250 54.289 C 16.250 65.453 8.625 72.750 8.625 72.750 C 22.625 76.375 17.250 91.875 17.250 91.875 C 17.730 91.899 18.214 91.906 18.699 91.897 C 18.846 91.895 18.996 91.882 19.144 91.876 C 19.489 91.863 19.834 91.851 20.182 91.822 C 20.310 91.812 20.440 91.795 20.568 91.782 C 20.952 91.745 21.337 91.706 21.723 91.651 C 21.771 91.644 21.820 91.634 21.868 91.628 C 36.526 89.466 52.288 74.984 54.900 72.500 C 55.381 72.142 55.197 72.181 56.041 71.688 C 55.874 71.146 55.666 70.688 55.416 70.146 C 55.108 70.229 54.290 70.570 54.290 70.570 Z "/>
      <path id="Outline_5_" fill="#272525" d="M 54.900 72.500 C 52.288 74.985 36.525 89.466 21.867 91.629 C 21.819 91.636 21.771 91.646 21.722 91.652 C 21.336 91.707 20.951 91.746 20.567 91.783 C 20.438 91.796 20.309 91.813 20.181 91.823 C 19.834 91.851 19.489 91.864 19.143 91.877 C 18.995 91.883 18.846 91.895 18.698 91.898 C 18.213 91.907 17.729 91.900 17.249 91.876 C 17.249 91.876 22.624 76.376 8.624 72.751 C 8.624 72.751 16.249 65.454 15.249 54.290 C 15.249 54.290 26.499 56.751 31.749 49.126 C 31.749 49.126 32.624 76.751 54.289 70.571 C 54.289 70.571 54.300 70.553 54.320 70.519 C 54.332 70.499 54.352 70.465 54.371 70.434 C 54.264 70.245 54.131 70.059 53.985 69.876 C 53.723 69.547 53.405 69.228 53.011 68.924 C 48.482 69.601 44.855 68.780 41.659 66.241 C 35.490 61.339 33.760 50.213 35.076 41.921 C 29.609 46.632 23.474 52.270 11.396 50.241 C 10.900 55.216 14.560 67.357 1.248 73.921 C 16.846 75.356 17.760 85.642 11.579 95.498 C 28.984 97.605 45.015 85.768 54.408 75.068 C 54.591 74.546 54.726 74.025 54.809 73.509 C 54.867 73.169 54.903 72.832 54.900 72.500 Z "/>
    </g>
    <g id="Body">
      <path id="Green_Fill" fill="#39B54A" d="M 67.235 56.689 C 68.111 52.274 70.709 47.016 73.615 42.778 C 73.602 42.791 73.589 42.805 73.577 42.818 C 72.029 44.380 70.470 46.120 68.939 47.948 C 68.926 47.963 68.914 47.977 68.902 47.992 C 68.600 48.354 68.299 48.718 68 49.085 L 67.979 49.110 C 63.375 54.756 59.116 61.023 56.333 65.318 C 56.329 65.325 56.325 65.331 56.321 65.338 C 51.419 72.198 58.751 79.867 59.150 80.417 C 59.243 80.545 60.054 81.624 60.367 82.022 C 60.487 82.174 61.356 83.241 61.671 83.608 C 61.762 83.714 61.854 83.825 61.945 83.929 C 62.359 84.402 62.773 84.859 63.188 85.293 C 63.203 85.309 63.217 85.322 63.232 85.338 C 63.628 85.751 64.024 86.144 64.420 86.524 C 64.514 86.614 64.607 86.701 64.701 86.789 C 65.037 87.105 65.374 87.410 65.711 87.703 C 65.794 87.775 65.877 87.849 65.960 87.920 C 66.806 88.642 67.652 89.293 68.496 89.876 C 68.539 89.906 68.582 89.934 68.625 89.963 C 69.007 90.225 69.389 90.472 69.770 90.706 C 69.830 90.743 69.890 90.780 69.950 90.816 C 71.237 91.594 72.516 92.224 73.782 92.723 C 73.812 92.736 73.843 92.746 73.872 92.758 C 74.290 92.921 74.707 93.071 75.122 93.207 C 75.122 93.207 75.122 93.207 75.123 93.207 C 68.456 83.324 63.752 68.828 67.235 56.689 Z "/>
      <path id="Yellow_Fill" fill="#FFDC00" d="M 96.887 74.261 C 105.774 65.022 126.225 63.584 126.225 63.584 C 127.575 46.543 121.662 37.667 110.930 33.031 C 97.163 27.084 83.508 34.750 78.152 38.754 C 78.099 38.794 78.046 38.839 77.993 38.879 C 70.775 52.008 69.718 64.993 70.754 75.346 C 71.252 81.464 74.939 88.202 77.433 93.833 C 77.445 93.835 77.456 93.837 77.469 93.840 C 77.838 93.918 78.206 93.985 78.573 94.043 C 78.675 94.059 78.775 94.073 78.877 94.088 C 79.165 94.130 79.452 94.166 79.738 94.197 C 79.841 94.208 79.943 94.218 80.046 94.228 C 80.375 94.259 80.702 94.283 81.027 94.298 C 81.071 94.300 81.116 94.305 81.160 94.307 C 81.538 94.324 81.913 94.329 82.285 94.328 C 82.351 94.328 82.416 94.325 82.481 94.324 C 82.781 94.320 83.080 94.310 83.376 94.295 C 83.475 94.290 83.572 94.284 83.670 94.278 C 83.947 94.259 84.224 94.237 84.498 94.211 C 84.581 94.202 84.664 94.195 84.746 94.187 C 85.453 94.110 86.146 94.003 86.825 93.872 C 86.906 93.856 86.986 93.839 87.066 93.822 C 87.328 93.769 87.587 93.713 87.843 93.652 C 87.929 93.631 88.015 93.612 88.101 93.590 C 88.379 93.522 88.656 93.449 88.929 93.373 C 88.976 93.360 89.023 93.348 89.070 93.335 C 89.397 93.242 89.719 93.145 90.037 93.042 C 90.074 93.029 90.111 93.017 90.148 93.005 C 90.419 92.916 90.688 92.823 90.953 92.729 C 91.030 92.701 91.107 92.672 91.184 92.644 C 91.418 92.558 91.650 92.469 91.878 92.379 C 91.945 92.352 92.014 92.325 92.081 92.298 C 92.665 92.063 93.229 91.815 93.771 91.559 C 93.825 91.534 93.877 91.508 93.931 91.483 C 94.147 91.379 94.360 91.275 94.568 91.170 C 94.633 91.138 94.698 91.105 94.762 91.071 C 94.973 90.964 95.180 90.855 95.382 90.746 C 95.426 90.723 95.470 90.699 95.514 90.676 C 95.762 90.541 96.005 90.405 96.242 90.270 C 96.254 90.263 96.264 90.257 96.276 90.250 C 96.495 90.124 96.707 89.999 96.914 89.874 C 96.968 89.841 97.019 89.810 97.072 89.776 C 97.242 89.672 97.408 89.569 97.570 89.467 C 97.619 89.436 97.668 89.405 97.716 89.374 C 97.906 89.252 98.093 89.131 98.272 89.012 C 98.282 89.006 98.293 88.999 98.301 88.993 C 98.495 88.863 98.683 88.735 98.863 88.610 C 98.894 88.589 98.924 88.567 98.955 88.546 C 99.098 88.446 99.236 88.348 99.369 88.252 C 99.411 88.222 99.454 88.190 99.495 88.160 C 99.619 88.070 99.739 87.981 99.853 87.895 C 99.884 87.872 99.917 87.847 99.949 87.825 C 100.235 87.609 100.490 87.409 100.715 87.229 C 100.745 87.206 100.773 87.183 100.801 87.160 C 100.883 87.095 100.960 87.031 101.032 86.971 C 101.058 86.950 101.085 86.928 101.110 86.908 C 101.186 86.844 101.258 86.783 101.324 86.727 C 101.335 86.718 101.347 86.707 101.357 86.699 C 101.432 86.635 101.499 86.577 101.557 86.526 C 101.572 86.512 101.583 86.503 101.597 86.490 C 101.638 86.454 101.676 86.420 101.707 86.392 C 101.719 86.380 101.731 86.370 101.742 86.360 C 101.765 86.339 101.787 86.319 101.803 86.304 C 101.811 86.297 101.822 86.287 101.827 86.283 C 101.837 86.273 101.848 86.262 101.848 86.262 C 100.195 85.773 88 83.500 96.887 74.261 Z "/>
      <path id="Outline" fill="#272525" d="M 99.838 76.570 C 107.143 68.322 129.688 66.442 130.192 65.873 C 130.108 57.758 128.407 47.758 123.977 40.822 C 115.122 26.962 96.511 23.013 78.354 34.879 C 69.637 40.575 57.957 57.227 52.392 68.160 C 52.392 68.160 49.813 71.482 53.032 76.125 C 64.726 92.996 80.741 106.894 100.114 91.930 C 102.489 90.095 105.843 87.510 106.696 84.526 C 102.109 84.716 94.672 82.405 99.838 76.570 Z M 75.124 93.208 C 74.709 93.072 74.292 92.922 73.874 92.759 C 73.844 92.747 73.814 92.737 73.784 92.724 C 72.518 92.225 71.239 91.595 69.952 90.817 C 69.892 90.781 69.832 90.744 69.772 90.707 C 69.391 90.473 69.009 90.226 68.627 89.964 C 68.584 89.935 68.541 89.907 68.498 89.877 C 67.654 89.294 66.808 88.643 65.962 87.921 C 65.879 87.850 65.796 87.776 65.713 87.704 C 65.377 87.411 65.040 87.106 64.703 86.790 C 64.609 86.702 64.515 86.615 64.422 86.525 C 64.026 86.145 63.630 85.753 63.234 85.339 C 63.219 85.323 63.205 85.310 63.190 85.294 C 62.775 84.859 62.360 84.402 61.947 83.930 C 61.855 83.826 61.764 83.715 61.673 83.609 C 61.358 83.242 60.489 82.175 60.369 82.023 C 60.056 81.625 59.244 80.545 59.152 80.418 C 58.753 79.868 51.421 72.199 56.323 65.339 C 56.327 65.333 56.331 65.326 56.335 65.319 C 59.118 61.023 63.377 54.757 67.981 49.111 L 68 49.085 C 68.299 48.718 68.600 48.354 68.902 47.993 C 68.914 47.978 68.926 47.963 68.939 47.949 C 70.469 46.121 72.029 44.381 73.577 42.819 C 73.589 42.806 73.602 42.793 73.615 42.779 C 70.709 47.017 68.112 52.275 67.235 56.690 C 63.752 68.828 68.456 83.324 75.124 93.208 C 75.124 93.208 75.124 93.208 75.124 93.208 Z M 101.826 86.282 C 101.819 86.288 101.813 86.294 101.802 86.303 C 101.786 86.318 101.765 86.337 101.741 86.359 C 101.729 86.370 101.720 86.379 101.706 86.391 C 101.675 86.418 101.637 86.453 101.596 86.489 C 101.582 86.502 101.571 86.511 101.556 86.525 C 101.497 86.576 101.431 86.633 101.356 86.698 C 101.345 86.707 101.334 86.718 101.323 86.726 C 101.258 86.782 101.185 86.842 101.109 86.907 C 101.084 86.928 101.057 86.949 101.031 86.970 C 100.959 87.031 100.882 87.094 100.800 87.159 C 100.772 87.182 100.744 87.204 100.714 87.228 C 100.489 87.408 100.235 87.608 99.948 87.824 C 99.917 87.847 99.885 87.871 99.852 87.894 C 99.738 87.980 99.618 88.069 99.494 88.159 C 99.452 88.189 99.411 88.220 99.368 88.251 C 99.235 88.347 99.097 88.445 98.954 88.545 C 98.923 88.566 98.893 88.588 98.862 88.609 C 98.682 88.734 98.495 88.862 98.300 88.992 C 98.291 88.998 98.280 89.005 98.271 89.011 C 98.092 89.130 97.906 89.251 97.715 89.373 C 97.667 89.404 97.618 89.435 97.569 89.466 C 97.407 89.568 97.241 89.671 97.071 89.775 C 97.018 89.808 96.967 89.839 96.913 89.873 C 96.706 89.998 96.494 90.123 96.275 90.249 C 96.263 90.256 96.253 90.262 96.241 90.269 C 96.005 90.405 95.762 90.540 95.513 90.675 L 95.381 90.745 C 95.179 90.854 94.972 90.963 94.761 91.070 C 94.697 91.103 94.632 91.136 94.567 91.169 C 94.359 91.274 94.146 91.379 93.930 91.482 C 93.876 91.507 93.824 91.533 93.770 91.558 C 93.228 91.814 92.664 92.062 92.080 92.297 C 92.013 92.324 91.944 92.351 91.877 92.378 C 91.648 92.468 91.417 92.557 91.183 92.643 C 91.106 92.671 91.030 92.700 90.952 92.728 C 90.687 92.823 90.419 92.916 90.147 93.004 C 90.110 93.016 90.073 93.028 90.036 93.041 C 89.719 93.144 89.396 93.241 89.069 93.334 L 88.928 93.372 C 88.655 93.448 88.378 93.520 88.100 93.589 C 88.014 93.610 87.928 93.630 87.842 93.651 C 87.585 93.712 87.326 93.768 87.065 93.821 C 86.984 93.838 86.905 93.855 86.824 93.871 C 86.145 94.003 85.452 94.109 84.745 94.186 C 84.663 94.195 84.580 94.202 84.497 94.210 C 84.223 94.236 83.946 94.259 83.669 94.277 C 83.571 94.283 83.474 94.289 83.375 94.294 C 83.079 94.310 82.780 94.319 82.480 94.323 C 82.415 94.324 82.350 94.327 82.284 94.327 C 81.912 94.329 81.537 94.323 81.159 94.306 C 81.115 94.304 81.070 94.299 81.026 94.297 C 80.701 94.281 80.374 94.258 80.045 94.227 C 79.942 94.217 79.840 94.206 79.737 94.196 C 79.451 94.165 79.164 94.129 78.876 94.087 C 78.774 94.072 78.674 94.058 78.572 94.042 C 78.206 93.983 77.838 93.917 77.468 93.839 C 77.455 93.836 77.444 93.835 77.432 93.832 C 74.938 88.201 71.251 81.463 70.753 75.345 C 69.717 64.992 70.774 52.007 77.992 38.878 C 78.045 38.838 78.098 38.793 78.151 38.753 C 83.507 34.749 97.163 27.083 110.929 33.030 C 121.660 37.666 127.574 46.542 126.224 63.583 C 126.224 63.583 105.773 65.021 96.886 74.260 C 87.999 83.499 100.195 85.772 101.847 86.260 C 101.848 86.262 101.836 86.272 101.826 86.282 Z "/>
    </g>
    <g id="Little_Fin">
      <path id="Fill_1_" fill="#4B79EF" d="M 62.043 94.898 C 63.628 97.068 63.184 100.486 61.677 102.578 C 66.896 104.242 68.055 107.162 69.426 112.269 C 74.785 110.496 80.246 96.086 79.358 90.743 C 75.022 94.152 67.374 96.113 62.043 94.898 Z "/>
      <path id="Outline_4_" fill="#272525" d="M 83.107 87.268 C 82.915 86.303 81.993 84.419 80.913 85.256 C 73.197 91.241 68.853 93.755 55.679 89.647 C 57.285 93.395 60.855 95.698 56.594 104.092 C 65.882 106.899 67.254 110.784 68.845 115.977 C 78.225 110.689 85.297 98.188 83.107 87.268 Z M 69.426 112.270 C 68.055 107.163 66.896 104.243 61.677 102.579 C 63.184 100.487 63.628 97.069 62.043 94.899 C 67.374 96.114 75.022 94.153 79.357 90.744 C 80.246 96.087 74.785 110.496 69.426 112.270 Z "/>
    </g>
    <g id="L_Eye">
      <path id="White_1_" fill="#000000" d="M 84.609 55.876 C 87.312 59.799 99.371 58.688 98.441 53.393 C 97.377 47.312 80.927 50.530 84.609 55.876 Z "/>
      <path id="Pupil_1_" fill="#272525" d="M 96.163 50.339 C 97.048 50.339 97.849 50.754 98.429 51.426 C 99.010 52.097 99.369 53.024 99.369 54.047 C 99.369 55.070 99.010 55.997 98.429 56.668 C 97.849 57.340 97.048 57.755 96.163 57.755 C 95.278 57.755 94.477 57.340 93.897 56.668 C 93.316 55.997 92.957 55.070 92.957 54.047 C 92.957 53.024 93.316 52.097 93.897 51.426 C 94.477 50.754 95.278 50.339 96.163 50.339 Z "/>
      <path id="Outline_3_" fill="#272525" d="M 80.896 53.681 C 77.720 63.778 101.066 63.904 101.288 53.566 C 101.452 45.915 83.795 44.473 80.896 53.681 Z M 84.609 55.876 C 80.926 50.530 97.377 47.312 98.441 53.393 C 99.371 58.688 87.312 59.799 84.609 55.876 Z "/>
    </g>
    <g id="R_Eye">
      <path id="White" fill="#000000" d="M 119.430 54.020 C 121.508 57.101 130.784 56.229 130.071 52.069 C 129.250 47.293 116.598 49.821 119.430 54.020 Z "/>
      <path id="Pupil" fill="#272525" d="M 128.648 49.755 C 129.348 49.755 129.982 50.084 130.441 50.615 C 130.901 51.147 131.185 51.881 131.185 52.691 C 131.185 53.501 130.901 54.235 130.441 54.767 C 129.982 55.298 129.348 55.627 128.648 55.627 C 127.948 55.627 127.314 55.298 126.855 54.767 C 126.395 54.235 126.111 53.501 126.111 52.691 C 126.111 51.881 126.395 51.147 126.855 50.615 C 127.314 50.084 127.948 49.755 128.648 49.755 Z "/>
      <path id="Outline_2_" fill="#272525" d="M 115.139 52.532 C 112.436 61.122 132.298 61.228 132.487 52.433 C 132.628 45.923 117.604 44.696 115.139 52.532 Z M 119.430 54.020 C 116.598 49.821 129.250 47.293 130.071 52.069 C 130.784 56.229 121.508 57.101 119.430 54.020 Z "/>
    </g>
  </g>
</svg>